<svg id="Camada_1" data-name="Camada 1" xmlns="http://www.w3.org/2000/svg" viewBox="0 0 1329.99 1448.12"><defs><style>.cls-1{fill:#2f33bc;}.cls-2{fill:#363dde;}</style></defs><title>logo2</title><path class="cls-1" d="M972.45,613.84q0,79.88.08,159.75A23.39,23.39,0,0,1,970,784.5c-9.1,17.83-16.52,36.54-27.87,53.2-4.41,6.47-9.2,12.65-14.16,18.71-6.8,8.34-14.73,15.58-22.78,22.63A365.33,365.33,0,0,1,873,904c-14.81,10.34-29.84,20.38-45.49,29.39-8.63,5-17.56,9.74-27.58,11.43-6.27,1-12.14-1.37-17.85-3.54-21-8-41.24-17.73-61.51-27.41-27.39-13.08-54.49-26.73-81.49-40.56-22.27-11.41-44.79-22.31-67-33.84-5.55-2.88-11-5.89-16.63-8.63a4.37,4.37,0,0,1-2.71-4c-.16-7-1.11-13.89-1.63-20.84-1-12.42-1.78-24.81-3.89-37.12-1.54-9-3.91-17.46-9-25-5.41-8.08-12.58-14.13-21.07-18.94-19.26-10.89-38.87-21.07-58.47-31.31-12.47-6.52-25.13-12.65-37.63-19.09-72-37.11-144.81-72.77-217.31-109-22.82-11.4-45.56-23-68.63-33.94-18.24-8.64-36-18.18-54.3-26.78-18.61-8.77-36.73-18.55-55.35-27.3-19.57-9.19-38.6-19.47-58.16-28.66-20.16-9.48-39.79-20-59.9-29.56-26.13-12.39-51.71-25.88-77.72-38.51-60.24-29.24-119.83-59.78-179.84-89.49-2.23-1.11-3.27-2.18-3.2-4.93.56-19.8-1-39.58-.8-59.39.3-30.38-.06-60.77.16-91.15.07-10.95.5-21.95,1.65-32.83,1.5-14.09,2.67-28.28,7-41.95,3.81-12,9.77-22.92,16.66-33.34,9.5-14.38,21.12-27,33.83-38.55,20.73-18.79,43.47-34.9,67.38-49.45a279.48,279.48,0,0,1,32.34-17.08c8.88-3.93,17.05-4,25.8,0,14.51,6.63,29.2,12.87,43.7,19.55C-71.08-32.65-17.95-4.69,35.93,21.75c6.73,3.3,13.43,6.7,20.28,9.72,4.6,2,3.36,6.21,3.8,9.49,1.61,11.93,2.88,23.92,4,35.9,1,10.27,2.12,20.49,4.84,30.49a44.9,44.9,0,0,0,21.19,27.8c14.53,8.66,29.51,16.48,44.47,24.36,21.3,11.22,42.75,22.15,64.13,33.22,67.5,35,135.76,68.5,203.7,102.63q58.13,29.19,116.39,58.12c22.82,11.38,45.54,23,68.58,33.91,20.95,9.93,41.49,20.67,62.34,30.78,18.73,9.08,37.18,18.72,56,27.59,13.66,6.45,27,13.48,40.64,20,31.09,14.91,61.9,30.39,92.88,45.53,13.56,6.62,27.14,13.23,40.6,20.08q28.53,14.5,56.76,29.61c8.58,4.59,17.17,9.19,25.4,14.46a15.63,15.63,0,0,1,7.14,11A222.17,222.17,0,0,1,972.45,613.84Z" transform="translate(357.38 294.3)"/><path class="cls-2" d="M-357.14,566q-.06-41.38-.11-82.75c0-14.52-.36-29.06.15-43.57.25-7.14.26-14.42,2.2-21.47,1.34-4.86,3.81-6.53,8.5-4.69,11.38,4.47,22.47,9.6,33.52,14.81,23.92,11.3,47.72,22.87,71.52,34.43,45.54,22.13,90.64,45.16,136,67.71C-76.21,545-47.31,560-18,574.3c5.92,2.88,8.2,6.52,8.63,12.57.74,10.3,2.58,20.49,3.82,30.74,1.08,9,2.09,17.9,4.15,26.68,3.15,13.39,10.61,23.88,21.36,32.43,13.15,10.46,27.7,18.52,42.45,26.31,13.45,7.1,26.78,14.46,40.5,21,15.76,7.52,31.16,15.77,47,23.13s31.22,15.75,47.06,23.13,31.44,15.89,47.41,23.31c17.39,8.09,34.26,17.24,51.61,25.4,21.82,10.27,43.17,21.5,64.84,32.07,75.76,37,150.87,75.23,226.32,112.82q25.73,12.83,51.1,26.38c8.83,4.72,17.91,9,26.24,14.68,5.33,3.6,5.61,6.09,1.17,10.63-5.59,5.69-12.66,9.2-19.48,13-26.37,14.61-53.54,27.69-80.54,41.08-19.94,9.9-40.1,19.37-60.37,28.59-27,12.25-54.11,24-81.94,34.2a454.74,454.74,0,0,1-53.22,16.13c-11.21,2.6-22.59,4.75-34.23,4.35-4.1-.14-8.1,1.34-12.23.8-10.84-1.42-21.76-.27-32.61-.91-9.35-.54-18.72-.84-28.05-1.58-23.72-1.9-47-6-69.07-15.43-11.6-4.94-23-10.39-34.46-15.65-22-10.1-43.87-20.55-65.67-31.12-21.35-10.36-42.63-20.88-64-31.19-32.91-15.89-65.47-32.47-98.13-48.84q-24.65-12.36-49-25.25c-29.27-15.4-58-31.72-85.51-50.14-19.1-12.78-37.69-26.17-55.64-40.51a437.08,437.08,0,0,1-45.26-41.49c-17.41-18.46-32.25-38.76-42.44-62.2-2.69-6.21-5.59-12.32-8.54-18.41a10.84,10.84,0,0,1-.85-5q0-26.37,0-52.76,0-19.75,0-39.5c0-1,.24-2.16-.7-3q-.07-27.93-.14-55.86,0-22.95,0-45.9C-356.44,568-356.2,566.83-357.14,566Z" transform="translate(357.38 294.3)"/><path class="cls-2" d="M972.45,238.89c0,40.78.35,81.56-.2,122.33-.19,14.06-.15,28.15-.68,42.2-.44,11.58-1.47,23.13-2.38,34.68-.16,2-1,4-1.55,6-.68,2.68-2.68,3.17-4.93,2.68a129.43,129.43,0,0,1-23.51-8.12q-39.21-17-77.58-35.92c-17.09-8.37-34.15-16.8-51.38-24.89-15-7.05-29.6-14.89-44.57-22-38.67-18.36-76.57-38.25-115-57.06-4.91-2.4-9.57-5.33-14.48-7.75-8.43-4.16-10.7-12-12.31-20.18-2.24-11.46-2.75-23.14-4.12-34.71-1.29-11-3.13-22-9.19-31.6a63.85,63.85,0,0,0-22.32-21.63c-18.43-10.58-37.34-20.26-56.29-29.88-21.86-11.11-43.77-22.12-65.45-33.57-20.2-10.67-40.82-20.47-61.14-30.88C324.84,47.37,243.68,7.4,162.74-33c-20.67-10.31-41.27-20.75-62.07-30.78C77.07-75.15,53.61-86.86,30-98.23c-15.86-7.65-31.67-15.41-47.31-23.48-10.17-5.24-20.62-10.06-30.11-16.58-.2-.14-.53-.1-.74-.24-6.29-4.35-6.32-6.95-.28-11.68,8.65-6.77,18.2-12.12,27.8-17.34,33.71-18.31,68-35.52,102.43-52.38,20.23-9.91,40.65-19.43,61.1-28.89a709.58,709.58,0,0,1,89.33-34.37A223.78,223.78,0,0,1,273.76-292c7.08-.77,14.25-.76,21.23-1.72,9.21-1.27,18.24.07,27.27.48,13.26.59,26.42,2.89,39.46,5.76,23.2,5.11,45.31,13.16,66.88,23,17.52,8,35,16,52.42,24.28,23.9,11.35,47.63,23.06,71.47,34.53,34.8,16.74,69.12,34.41,103.73,51.51,17.3,8.55,34.38,17.57,51.46,26.54q25.1,13.17,50,26.69c19,10.31,37.44,21.49,55.64,33.14q22.21,14.22,43.56,29.66c10.91,7.92,21.39,16.44,31.5,25.43Q900.48-2,911.43,9.84a246.6,246.6,0,0,1,30.91,41.82c9.56,16,17,33.16,25.34,49.83A45.62,45.62,0,0,1,972.6,123C972.26,161.61,972.45,200.25,972.45,238.89Z" transform="translate(357.38 294.3)"/><path class="cls-1" d="M-357.14,566c.94.82.7,1.94.7,3q0,22.95,0,45.9c-1-.39-.79-1.26-.79-2Q-357.22,589.44-357.14,566Z" transform="translate(357.38 294.3)"/><path class="cls-1" d="M-356.34,670.75c.94.83.7,2,.7,3q0,19.74,0,39.5c-1-.39-.79-1.26-.79-2Q-356.42,691-356.34,670.75Z" transform="translate(357.38 294.3)"/></svg>