<svg width="54" height="54" viewBox="0 0 54 54" fill="none" xmlns="http://www.w3.org/2000/svg">
<path fill-rule="evenodd" clip-rule="evenodd" d="M25.2607 1.75297C24.6229 1.89443 23.2812 2.35823 22.2791 2.7836C20.2546 3.6428 15.5869 5.98037 14.8441 6.50695C14.3848 6.83261 14.3784 6.8553 14.6785 7.08687C14.8503 7.21939 16.1834 7.90582 17.641 8.61229C24.2463 11.8139 36.9971 18.243 37.4216 18.5864C38.1634 19.1859 38.3264 19.5463 38.4375 20.8334C38.5165 21.7474 38.6179 22.0939 38.8582 22.2706C39.0323 22.3987 41.7295 23.752 44.8517 25.2781C49.3137 27.4588 50.5719 28.0096 50.7306 27.8509C50.8814 27.7001 50.9327 26.1782 50.9339 21.817L50.9355 15.9846L50.3932 14.835C49.3145 12.548 47.937 11.2112 44.4474 9.065C42.2901 7.73819 32.3259 2.78559 30.555 2.15995C28.7228 1.51262 26.9565 1.37679 25.2607 1.75297ZM8.54702 9.68732C6.2275 11.084 4.85945 12.3858 4.22321 13.8023C3.81986 14.6997 3.7223 16.224 3.78574 20.6318L3.80976 22.2973L7.57816 24.1815C9.65087 25.218 14.1791 27.4583 17.641 29.1603C29.1018 34.7947 34.6976 37.6257 35.0903 37.9883C35.6868 38.5392 35.8154 38.8859 35.9257 40.2409L36.0276 41.4938L40.0719 43.5395C42.842 44.9407 44.2905 45.5852 44.6694 45.5852C45.0739 45.5852 45.6579 45.2952 46.8448 44.5051C48.8019 43.2023 49.7149 42.2482 50.4113 40.7782L50.9355 39.6717V36.2601C50.9355 33.4718 50.8901 32.7935 50.6871 32.5475C50.5504 32.3819 48.3887 31.2424 45.8834 30.0153C30.4598 22.4606 19.7449 17.0659 19.3356 16.6487C18.8183 16.1216 18.7635 15.951 18.5917 14.3333L18.4693 13.1789L14.411 11.1533C12.1789 10.0392 10.162 9.1238 9.92882 9.119C9.69576 9.11419 9.07393 9.36995 8.54702 9.68732ZM3.67807 33.0046L3.72694 39.3404L4.19008 40.3343C5.02095 42.1176 7.37525 44.2132 10.7668 46.1883C12.8296 47.3898 22.3624 52.0785 23.6042 52.5025C24.5007 52.8086 25.2231 52.9145 26.7884 52.9692C28.5979 53.0324 28.9721 52.9943 30.3082 52.611C31.8329 52.1737 34.0956 51.1991 37.3527 49.5766C39.9616 48.2769 40.3038 48.0508 40.0766 47.777C39.8978 47.5619 32.8109 44.004 22.0926 38.7488C16.3328 35.9247 16.4196 35.9958 16.1521 33.8758L15.9846 32.549L10.1317 29.6089C6.91277 27.9918 4.13276 26.6687 3.9542 26.6687C3.63633 26.6687 3.63037 26.8047 3.67807 33.0046Z" fill="#363DDF"/>
<path fill-rule="evenodd" clip-rule="evenodd" d="M8.39753 9.93174C6.34686 11.13 5.00812 12.3859 4.35532 13.7242C3.91205 14.6326 3.89715 14.7546 3.83917 17.9481C3.80621 19.7568 3.82443 21.4766 3.87942 21.7698C3.97549 22.2823 4.15423 22.3888 8.49129 24.517C26.0742 33.1456 34.9072 37.6013 35.3369 38.0588C35.8582 38.614 36.0984 39.4225 36.111 40.6657L36.1196 41.4939L40.013 43.3988C42.1545 44.4465 44.1213 45.3685 44.3837 45.4478C44.7927 45.5712 45.0571 45.4765 46.2343 44.7853C47.7897 43.8717 49.6499 42.1495 50.147 41.1626C50.6983 40.068 50.8528 38.8933 50.8528 35.7967C50.8528 33.188 50.8192 32.8185 50.5599 32.5839C50.3108 32.3585 39.0236 26.7249 23.7529 19.2043C19.3464 17.0344 18.5522 16.4449 18.5522 15.3448C18.5522 15.0389 18.5038 14.4361 18.4448 14.0054L18.3375 13.2221L14.3748 11.2491C12.1953 10.164 10.2112 9.27612 9.96568 9.27612C9.7202 9.27612 9.01456 9.57114 8.39753 9.93174ZM3.74823 27.3042C3.69307 27.6379 3.64702 30.2248 3.64603 33.0527C3.64404 38.4789 3.7315 39.2963 4.46845 40.7406C5.24847 42.2696 7.63209 44.2784 10.9326 46.1881C13.4363 47.637 22.3221 51.961 23.77 52.4352C25.089 52.8672 25.4897 52.923 27.2485 52.9197C29.1039 52.9164 29.3545 52.8755 31.0124 52.3047C32.6863 51.7284 37.7914 49.3676 39.392 48.4296C40.0059 48.0698 40.0861 47.9663 39.8969 47.7785C39.6711 47.5543 33.9309 44.6713 23.1016 39.343C16.1601 35.9276 16.1219 35.8971 16.0841 33.7757C16.0723 33.1166 15.9837 32.7747 15.7776 32.5922C15.4371 32.2906 5.33245 27.2215 4.4504 26.9098L3.84861 26.6971L3.74823 27.3042Z" fill="black" fill-opacity="0.22"/>
</svg>
