<svg width="137" height="60" viewBox="0 0 137 60" fill="none" xmlns="http://www.w3.org/2000/svg">
<path fill-rule="evenodd" clip-rule="evenodd" d="M25.2607 4.75297C24.6229 4.89443 23.2812 5.35823 22.2791 5.7836C20.2546 6.6428 15.5869 8.98037 14.8441 9.50695C14.3848 9.83261 14.3784 9.8553 14.6785 10.0869C14.8503 10.2194 16.1834 10.9058 17.641 11.6123C24.2463 14.8139 36.9971 21.243 37.4216 21.5864C38.1634 22.1859 38.3264 22.5463 38.4375 23.8334C38.5165 24.7474 38.6179 25.0939 38.8582 25.2706C39.0323 25.3987 41.7295 26.752 44.8517 28.2781C49.3137 30.4588 50.5719 31.0096 50.7306 30.8509C50.8814 30.7001 50.9327 29.1782 50.9339 24.817L50.9355 18.9846L50.3932 17.835C49.3145 15.548 47.937 14.2112 44.4474 12.065C42.2901 10.7382 32.3259 5.78559 30.555 5.15995C28.7228 4.51262 26.9565 4.37679 25.2607 4.75297ZM8.54702 12.6873C6.2275 14.084 4.85945 15.3858 4.22321 16.8023C3.81986 17.6997 3.7223 19.224 3.78574 23.6318L3.80976 25.2973L7.57816 27.1815C9.65087 28.218 14.1791 30.4583 17.641 32.1603C29.1018 37.7947 34.6976 40.6257 35.0903 40.9883C35.6868 41.5392 35.8154 41.8859 35.9257 43.2409L36.0276 44.4938L40.0719 46.5395C42.842 47.9407 44.2905 48.5852 44.6694 48.5852C45.0739 48.5852 45.6579 48.2952 46.8448 47.5051C48.8019 46.2023 49.7149 45.2482 50.4113 43.7782L50.9355 42.6717V39.2601C50.9355 36.4718 50.8901 35.7935 50.6871 35.5475C50.5504 35.3819 48.3887 34.2424 45.8834 33.0153C30.4598 25.4606 19.7449 20.0659 19.3356 19.6487C18.8183 19.1216 18.7635 18.951 18.5917 17.3333L18.4693 16.1789L14.411 14.1533C12.1789 13.0392 10.162 12.1238 9.92882 12.119C9.69576 12.1142 9.07393 12.3699 8.54702 12.6873ZM3.67807 36.0046L3.72694 42.3404L4.19008 43.3343C5.02095 45.1176 7.37525 47.2132 10.7668 49.1883C12.8296 50.3898 22.3624 55.0785 23.6042 55.5025C24.5007 55.8086 25.2231 55.9145 26.7884 55.9692C28.5979 56.0324 28.9721 55.9943 30.3082 55.611C31.8329 55.1737 34.0956 54.1991 37.3527 52.5766C39.9616 51.2769 40.3038 51.0508 40.0766 50.777C39.8978 50.5619 32.8109 47.004 22.0926 41.7488C16.3328 38.9247 16.4196 38.9958 16.1521 36.8758L15.9846 35.549L10.1317 32.6089C6.91277 30.9918 4.13276 29.6687 3.9542 29.6687C3.63633 29.6687 3.63037 29.8047 3.67807 36.0046Z" fill="#363DDF"/>
<path fill-rule="evenodd" clip-rule="evenodd" d="M8.39753 12.9317C6.34686 14.13 5.00812 15.3859 4.35532 16.7242C3.91205 17.6326 3.89715 17.7546 3.83917 20.9481C3.80621 22.7568 3.82443 24.4766 3.87942 24.7698C3.97549 25.2823 4.15423 25.3888 8.49129 27.517C26.0742 36.1456 34.9072 40.6013 35.3369 41.0588C35.8582 41.614 36.0984 42.4225 36.111 43.6657L36.1196 44.4939L40.013 46.3988C42.1545 47.4465 44.1213 48.3685 44.3837 48.4478C44.7927 48.5712 45.0571 48.4765 46.2343 47.7853C47.7897 46.8717 49.6499 45.1495 50.147 44.1626C50.6983 43.068 50.8528 41.8933 50.8528 38.7967C50.8528 36.188 50.8192 35.8185 50.5599 35.5839C50.3108 35.3585 39.0236 29.7249 23.7529 22.2043C19.3464 20.0344 18.5522 19.4449 18.5522 18.3448C18.5522 18.0389 18.5038 17.4361 18.4448 17.0054L18.3375 16.2221L14.3748 14.2491C12.1953 13.164 10.2112 12.2761 9.96568 12.2761C9.7202 12.2761 9.01456 12.5711 8.39753 12.9317ZM3.74823 30.3042C3.69307 30.6379 3.64702 33.2248 3.64603 36.0527C3.64404 41.4789 3.7315 42.2963 4.46845 43.7406C5.24847 45.2696 7.63209 47.2784 10.9326 49.1881C13.4363 50.637 22.3221 54.961 23.77 55.4352C25.089 55.8672 25.4897 55.923 27.2485 55.9197C29.1039 55.9164 29.3545 55.8755 31.0124 55.3047C32.6863 54.7284 37.7914 52.3676 39.392 51.4296C40.0059 51.0698 40.0861 50.9663 39.8969 50.7785C39.6711 50.5543 33.9309 47.6713 23.1016 42.343C16.1601 38.9276 16.1219 38.8971 16.0841 36.7757C16.0723 36.1166 15.9837 35.7747 15.7776 35.5922C15.4371 35.2906 5.33245 30.2215 4.4504 29.9098L3.84861 29.6971L3.74823 30.3042Z" fill="black" fill-opacity="0.22"/>
<path d="M75.8 44L69.96 33.4H68.32V44H61.48V15.92H72.96C75.1733 15.92 77.0533 16.3067 78.6 17.08C80.1733 17.8533 81.3467 18.92 82.12 20.28C82.8933 21.6133 83.28 23.1067 83.28 24.76C83.28 26.6267 82.7467 28.2933 81.68 29.76C80.64 31.2267 79.0933 32.2667 77.04 32.88L83.52 44H75.8ZM68.32 28.56H72.56C73.8133 28.56 74.7467 28.2533 75.36 27.64C76 27.0267 76.32 26.16 76.32 25.04C76.32 23.9733 76 23.1333 75.36 22.52C74.7467 21.9067 73.8133 21.6 72.56 21.6H68.32V28.56ZM108.614 32.48C108.614 33.12 108.574 33.7867 108.494 34.48H93.0138C93.1204 35.8667 93.5604 36.9333 94.3338 37.68C95.1338 38.4 96.1071 38.76 97.2538 38.76C98.9604 38.76 100.147 38.04 100.814 36.6H108.094C107.72 38.0667 107.04 39.3867 106.054 40.56C105.094 41.7333 103.88 42.6533 102.414 43.32C100.947 43.9867 99.3071 44.32 97.4938 44.32C95.3071 44.32 93.3604 43.8533 91.6538 42.92C89.9471 41.9867 88.6138 40.6533 87.6538 38.92C86.6938 37.1867 86.2138 35.16 86.2138 32.84C86.2138 30.52 86.6804 28.4933 87.6138 26.76C88.5738 25.0267 89.9071 23.6933 91.6138 22.76C93.3204 21.8267 95.2804 21.36 97.4938 21.36C99.6538 21.36 101.574 21.8133 103.254 22.72C104.934 23.6267 106.24 24.92 107.174 26.6C108.134 28.28 108.614 30.24 108.614 32.48ZM101.614 30.68C101.614 29.5067 101.214 28.5733 100.414 27.88C99.6138 27.1867 98.6138 26.84 97.4138 26.84C96.2671 26.84 95.2938 27.1733 94.4938 27.84C93.7204 28.5067 93.2404 29.4533 93.0538 30.68H101.614ZM110.862 32.88C110.862 30.6667 111.316 28.6933 112.222 26.96C113.156 25.2267 114.396 23.88 115.942 22.92C117.516 21.9333 119.222 21.44 121.062 21.44C122.476 21.44 123.742 21.6933 124.862 22.2C125.982 22.68 126.889 23.36 127.582 24.24V21.68H134.422V54.64H127.582V41.2C126.809 42.1333 125.862 42.88 124.742 43.44C123.649 44 122.396 44.28 120.982 44.28C119.169 44.28 117.489 43.8 115.942 42.84C114.396 41.88 113.156 40.5333 112.222 38.8C111.316 37.0667 110.862 35.0933 110.862 32.88ZM127.582 32.84C127.582 31.64 127.342 30.64 126.862 29.84C126.409 29.0133 125.809 28.4 125.062 28C124.316 27.5733 123.529 27.36 122.702 27.36C121.902 27.36 121.129 27.5733 120.382 28C119.636 28.4 119.022 29.0133 118.542 29.84C118.062 30.6667 117.822 31.68 117.822 32.88C117.822 34.08 118.062 35.0933 118.542 35.92C119.022 36.72 119.636 37.3333 120.382 37.76C121.129 38.16 121.902 38.36 122.702 38.36C123.502 38.36 124.276 38.16 125.022 37.76C125.796 37.3333 126.409 36.7067 126.862 35.88C127.342 35.0533 127.582 34.04 127.582 32.84Z" fill="black"/>
</svg>
