<svg width="145" height="60" viewBox="0 0 145 60" fill="none" xmlns="http://www.w3.org/2000/svg">
<g clip-path="url(#clip0_707_17)">
<path d="M52.9937 36.3727C52.9937 38.5056 52.9948 40.6384 52.9969 42.771C52.999 42.9227 52.9644 43.0727 52.8961 43.208C52.5334 43.9221 52.2378 44.6715 51.7855 45.3388C51.6097 45.5979 51.4188 45.8454 51.2212 46.0881C50.9502 46.4222 50.6342 46.7121 50.3134 46.9945C49.9046 47.3515 49.4764 47.6852 49.0306 47.9942C48.4405 48.4083 47.8415 48.8105 47.2179 49.1713C46.874 49.3716 46.5181 49.5614 46.1188 49.6291C45.8689 49.6692 45.635 49.5743 45.4075 49.4873C44.5706 49.1669 43.7641 48.7772 42.9563 48.3895C41.8648 47.8656 40.7849 47.3189 39.7089 46.765C38.8215 46.308 37.9241 45.8715 37.039 45.4097C36.8178 45.2943 36.6006 45.1737 36.3763 45.064C36.3446 45.0509 36.3175 45.0288 36.2983 45.0003C36.2791 44.9718 36.2686 44.9382 36.2683 44.9038C36.2619 44.6234 36.2241 44.3475 36.2033 44.0691C36.1635 43.5717 36.1324 43.0754 36.0483 42.5824C35.987 42.2219 35.8925 41.8831 35.6897 41.5811C35.4741 41.2575 35.1884 41.0152 34.85 40.8225C34.0825 40.3863 33.3011 39.9786 32.52 39.5685C32.0231 39.3073 31.5186 39.0618 31.0205 38.8039C28.1513 37.3176 25.2498 35.8893 22.3607 34.4382C21.4513 33.9816 20.5451 33.517 19.6258 33.0789C18.8989 32.7328 18.1912 32.3507 17.4619 32.0063C16.7203 31.655 15.9982 31.2633 15.2562 30.9129C14.4764 30.5448 13.718 30.133 12.9386 29.765C12.1352 29.3853 11.3529 28.9639 10.5515 28.581C9.51026 28.0848 8.4909 27.5445 7.45441 27.0386C5.05385 25.8675 2.67919 24.6443 0.287796 23.4544C0.198931 23.4099 0.157487 23.3671 0.160277 23.2569C0.182593 22.4639 0.120426 21.6717 0.128396 20.8782C0.140351 19.6615 0.126005 18.4443 0.134772 17.2275C0.137562 16.7889 0.154697 16.3484 0.200524 15.9126C0.260299 15.3483 0.306924 14.7799 0.479474 14.2324C0.631302 13.7518 0.868808 13.3144 1.14337 12.8971C1.52195 12.3212 1.985 11.8157 2.4915 11.3531C3.31759 10.6005 4.22377 9.95529 5.17658 9.37253C5.59085 9.11646 6.02135 8.88795 6.46533 8.68844C6.8192 8.53104 7.14477 8.52823 7.49346 8.68844C8.07168 8.95399 8.65708 9.20391 9.2349 9.47146C11.4091 10.4796 13.5263 11.5994 15.6735 12.6584C15.9416 12.7906 16.2086 12.9267 16.4816 13.0477C16.6649 13.1278 16.6155 13.2964 16.633 13.4278C16.6972 13.9056 16.7478 14.3858 16.7924 14.8657C16.8323 15.277 16.8769 15.6863 16.9853 16.0868C17.0448 16.3197 17.1503 16.5383 17.2953 16.7295C17.4403 16.9208 17.6221 17.0809 17.8297 17.2003C18.4088 17.5471 19.0057 17.8603 19.6019 18.1759C20.4507 18.6253 21.3054 19.0631 22.1574 19.5065C24.8473 20.9083 27.5675 22.25 30.2749 23.617C31.8192 24.3964 33.3652 25.1723 34.913 25.9448C35.8224 26.4006 36.7278 26.866 37.6459 27.303C38.4808 27.7007 39.2993 28.1309 40.1302 28.5358C40.8765 28.8994 41.6118 29.2855 42.3617 29.6408C42.9061 29.8991 43.4377 30.1807 43.9812 30.4418C45.2202 31.039 46.448 31.659 47.6825 32.2654C48.2229 32.5306 48.764 32.7953 49.3004 33.0697C50.0584 33.4568 50.8123 33.8521 51.5623 34.2556C51.9042 34.4394 52.2465 34.6237 52.5745 34.8347C52.6508 34.8831 52.7158 34.9475 52.7649 35.0236C52.8141 35.0997 52.8462 35.1855 52.859 35.2753C52.9265 35.638 52.9715 36.0045 52.9937 36.3727Z" fill="#2F33BC"/>
<path d="M0.00954289 34.4566C0.0079489 33.3517 0.00648832 32.247 0.00515999 31.1423C0.00515999 30.5608 -0.00918623 29.9784 0.0111372 29.3973C0.0210997 29.1113 0.0214987 28.8197 0.0988076 28.5374C0.152206 28.3427 0.250636 28.2758 0.437532 28.3495C0.891024 28.5286 1.33296 28.734 1.7733 28.9427C2.72651 29.3953 3.67494 29.8587 4.62337 30.3217C6.43813 31.208 8.23536 32.1304 10.043 33.0336C11.2046 33.6155 12.3562 34.2163 13.5242 34.7891C13.7602 34.9044 13.851 35.0502 13.8682 35.2925C13.8976 35.7051 13.971 36.1132 14.0204 36.5237C14.0634 36.8842 14.1037 37.2406 14.1858 37.5923C14.3113 38.1286 14.6086 38.5487 15.0369 38.8912C15.561 39.3101 16.1408 39.633 16.7286 39.945C17.2646 40.2293 17.7958 40.5241 18.3425 40.786C18.9705 41.0872 19.5842 41.4177 20.2154 41.7124C20.8467 42.0072 21.4596 42.3433 22.0908 42.6388C22.722 42.9344 23.3437 43.2753 23.9801 43.5725C24.6731 43.8965 25.3453 44.263 26.0367 44.5898C26.9063 45.0011 27.757 45.4509 28.6206 45.8742C31.6396 47.3562 34.6328 48.8874 37.6394 50.3929C38.323 50.7355 39.0018 51.0877 39.6758 51.4495C40.0276 51.6385 40.3895 51.8099 40.7214 52.0374C40.9338 52.1816 40.945 52.2814 40.768 52.4632C40.5453 52.6911 40.2635 52.8317 39.9918 52.9839C38.9409 53.569 37.8582 54.0929 36.7823 54.6292C35.9877 55.0257 35.1843 55.405 34.3765 55.7743C33.3006 56.2649 32.2202 56.7355 31.1112 57.1441C30.4181 57.4027 29.7098 57.6184 28.9904 57.7901C28.5437 57.8942 28.0902 57.9803 27.6263 57.9643C27.463 57.9587 27.3036 58.018 27.139 57.9964C26.707 57.9395 26.2718 57.9855 25.8395 57.9599C25.4669 57.9383 25.0935 57.9263 24.7217 57.8966C23.7764 57.8205 22.8487 57.6563 21.9692 57.2786C21.507 57.0808 21.0527 56.8625 20.596 56.6518C19.7193 56.2473 18.8478 55.8288 17.9791 55.4054C17.1283 54.9905 16.2803 54.5691 15.4287 54.1562C14.1172 53.5198 12.8197 52.8557 11.5182 52.2C10.8633 51.87 10.2125 51.5329 9.56556 51.1887C8.39915 50.5719 7.25426 49.9183 6.15799 49.1805C5.39685 48.6687 4.65605 48.1324 3.94074 47.558C3.30152 47.0473 2.69883 46.492 2.13713 45.8963C1.44334 45.1569 0.851971 44.3439 0.4459 43.405C0.338704 43.1563 0.223139 42.9116 0.105581 42.6677C0.0786936 42.6046 0.067086 42.5359 0.0717099 42.4674C0.0717099 41.7633 0.0717099 41.0589 0.0717099 40.3543C0.0717099 39.8269 0.0717099 39.2996 0.0717099 38.7722C0.0717099 38.7322 0.0812734 38.6857 0.0438145 38.6521C0.0419548 37.9063 0.0400946 37.1605 0.0382349 36.4148C0.0382349 35.802 0.0382349 35.1892 0.0382349 34.5764C0.0374379 34.5367 0.0470018 34.4899 0.00954289 34.4566Z" fill="#363DDE"/>
<path d="M52.9937 21.3553C52.9937 22.9886 53.0076 24.6219 52.9857 26.2548C52.9781 26.818 52.9797 27.3823 52.9586 27.945C52.9411 28.4088 52.9 28.8714 52.8638 29.334C52.8574 29.4141 52.8239 29.4942 52.802 29.5743C52.7749 29.6817 52.6952 29.7013 52.6055 29.6817C52.2836 29.6038 51.9698 29.4948 51.6687 29.3565C50.627 28.9025 49.5965 28.423 48.5771 27.9178C47.8961 27.5826 47.2162 27.2449 46.5296 26.9209C45.9319 26.6385 45.3501 26.3245 44.7535 26.0398C43.2125 25.3044 41.7022 24.5078 40.1708 23.7544C39.9751 23.6583 39.7894 23.5409 39.5937 23.444C39.2578 23.2774 39.1673 22.9634 39.1032 22.6357C39.0139 22.1767 38.9936 21.7089 38.939 21.2455C38.8876 20.805 38.8143 20.3644 38.5728 19.9799C38.3518 19.6219 38.0463 19.3243 37.6833 19.1136C36.9489 18.6898 36.1953 18.3021 35.4402 17.9168C34.5691 17.4718 33.6959 17.0309 32.832 16.5723C32.027 16.1449 31.2053 15.7524 30.3956 15.3355C27.1865 13.6845 23.9522 12.0837 20.7268 10.4656C19.9031 10.0526 19.0822 9.63449 18.2533 9.23276C17.3128 8.77737 16.378 8.30837 15.4371 7.85298C14.8051 7.54658 14.1751 7.23578 13.5518 6.91256C13.1465 6.70268 12.7301 6.50963 12.3519 6.2485C12.344 6.24289 12.3308 6.24449 12.3224 6.23888C12.0718 6.06466 12.0706 5.96052 12.3113 5.77108C12.656 5.49992 13.0365 5.28565 13.4191 5.07658C14.7624 4.34322 16.1289 3.65393 17.5009 2.97866C18.3071 2.58174 19.1208 2.20045 19.9358 1.82156C21.0902 1.28269 22.2795 0.822783 23.4956 0.444971C24.035 0.27488 24.5893 0.156729 25.1509 0.0921132C25.4331 0.0612732 25.7188 0.0616737 25.9969 0.0232238C26.364 -0.0276421 26.7238 0.0260279 27.0836 0.0424492C27.6121 0.0660799 28.1365 0.158198 28.6561 0.273147C29.5806 0.477813 30.4617 0.800231 31.3213 1.19434C32.0195 1.51476 32.716 1.83517 33.4102 2.1668C34.3626 2.62139 35.3083 3.0904 36.2583 3.5498C37.6451 4.22027 39.0127 4.92798 40.3919 5.61287C41.0813 5.95532 41.762 6.31658 42.4426 6.67585C43.1094 7.02751 43.7736 7.38383 44.4351 7.74484C45.1922 8.15777 45.9271 8.60555 46.6523 9.07216C47.2424 9.45185 47.821 9.84783 48.3882 10.2601C48.823 10.5773 49.2406 10.9186 49.6435 11.2786C49.9649 11.5643 50.2711 11.8652 50.562 12.1814C51.0302 12.6945 51.4431 13.256 51.7938 13.8564C52.1748 14.4972 52.4712 15.1845 52.8036 15.8521C52.9381 16.1189 53.0054 16.4147 52.9996 16.7137C52.9861 18.2601 52.9937 19.8077 52.9937 21.3553Z" fill="#363DDE"/>
<path d="M0.00944533 34.4567C0.0469043 34.4895 0.0373408 34.5344 0.0373408 34.5768C0.0373408 35.1896 0.0373408 35.8024 0.0373408 36.4152C-0.00250917 36.3996 0.00585898 36.3647 0.00585898 36.3351C0.00612464 35.7087 0.00732 35.0825 0.00944533 34.4567Z" fill="#2F33BC"/>
<path d="M0.041428 38.6521C0.0788869 38.6853 0.0693222 38.7322 0.0693222 38.7723C0.0693222 39.2993 0.0693222 39.8267 0.0693222 40.3543C0.0294723 40.3387 0.0378417 40.3038 0.0378417 40.2742C0.0381073 39.7335 0.0393027 39.1928 0.041428 38.6521Z" fill="#2F33BC"/>
</g>
<path d="M83.8 44L77.96 33.4H76.32V44H69.48V15.92H80.96C83.1733 15.92 85.0533 16.3067 86.6 17.08C88.1733 17.8533 89.3467 18.92 90.12 20.28C90.8933 21.6133 91.28 23.1067 91.28 24.76C91.28 26.6267 90.7467 28.2933 89.68 29.76C88.64 31.2267 87.0933 32.2667 85.04 32.88L91.52 44H83.8ZM76.32 28.56H80.56C81.8133 28.56 82.7467 28.2533 83.36 27.64C84 27.0267 84.32 26.16 84.32 25.04C84.32 23.9733 84 23.1333 83.36 22.52C82.7467 21.9067 81.8133 21.6 80.56 21.6H76.32V28.56ZM116.614 32.48C116.614 33.12 116.574 33.7867 116.494 34.48H101.014C101.12 35.8667 101.56 36.9333 102.334 37.68C103.134 38.4 104.107 38.76 105.254 38.76C106.96 38.76 108.147 38.04 108.814 36.6H116.094C115.72 38.0667 115.04 39.3867 114.054 40.56C113.094 41.7333 111.88 42.6533 110.414 43.32C108.947 43.9867 107.307 44.32 105.494 44.32C103.307 44.32 101.36 43.8533 99.6538 42.92C97.9471 41.9867 96.6138 40.6533 95.6538 38.92C94.6938 37.1867 94.2138 35.16 94.2138 32.84C94.2138 30.52 94.6804 28.4933 95.6138 26.76C96.5738 25.0267 97.9071 23.6933 99.6138 22.76C101.32 21.8267 103.28 21.36 105.494 21.36C107.654 21.36 109.574 21.8133 111.254 22.72C112.934 23.6267 114.24 24.92 115.174 26.6C116.134 28.28 116.614 30.24 116.614 32.48ZM109.614 30.68C109.614 29.5067 109.214 28.5733 108.414 27.88C107.614 27.1867 106.614 26.84 105.414 26.84C104.267 26.84 103.294 27.1733 102.494 27.84C101.72 28.5067 101.24 29.4533 101.054 30.68H109.614ZM118.862 32.88C118.862 30.6667 119.316 28.6933 120.222 26.96C121.156 25.2267 122.396 23.88 123.942 22.92C125.516 21.9333 127.222 21.44 129.062 21.44C130.476 21.44 131.742 21.6933 132.862 22.2C133.982 22.68 134.889 23.36 135.582 24.24V21.68H142.422V54.64H135.582V41.2C134.809 42.1333 133.862 42.88 132.742 43.44C131.649 44 130.396 44.28 128.982 44.28C127.169 44.28 125.489 43.8 123.942 42.84C122.396 41.88 121.156 40.5333 120.222 38.8C119.316 37.0667 118.862 35.0933 118.862 32.88ZM135.582 32.84C135.582 31.64 135.342 30.64 134.862 29.84C134.409 29.0133 133.809 28.4 133.062 28C132.316 27.5733 131.529 27.36 130.702 27.36C129.902 27.36 129.129 27.5733 128.382 28C127.636 28.4 127.022 29.0133 126.542 29.84C126.062 30.6667 125.822 31.68 125.822 32.88C125.822 34.08 126.062 35.0933 126.542 35.92C127.022 36.72 127.636 37.3333 128.382 37.76C129.129 38.16 129.902 38.36 130.702 38.36C131.502 38.36 132.276 38.16 133.022 37.76C133.796 37.3333 134.409 36.7067 134.862 35.88C135.342 35.0533 135.582 34.04 135.582 32.84Z" fill="black"/>
<defs>
<clipPath id="clip0_707_17">
<rect width="53" height="58" fill="white"/>
</clipPath>
</defs>
</svg>
